<svg id="Layer_1" data-name="Layer 1" xmlns="http://www.w3.org/2000/svg" viewBox="0 0 255.04 227.88"><defs><style>.cls-1{fill:#9cc2ff;}.cls-1,.cls-2,.cls-3,.cls-4,.cls-5,.cls-6,.cls-9{stroke:#8b31ff;stroke-linecap:round;}.cls-1,.cls-2,.cls-3,.cls-4,.cls-6,.cls-9{stroke-miterlimit:10;}.cls-1,.cls-4{stroke-width:8.27px;}.cls-2,.cls-5,.cls-9{fill:none;}.cls-2,.cls-3,.cls-5{stroke-width:8.06px;}.cls-3{fill:#fffc94;}.cls-4{fill:#e5a6ff;}.cls-5{stroke-miterlimit:9;}.cls-6{fill:#fff;stroke-width:5.94px;}.cls-7{fill:#8b31ff;}.cls-8{fill:#f9f8f7;}.cls-9{stroke-width:7.48px;}</style></defs><path class="cls-1" d="M166.94,48.09s34.19,25.83,64.23,58.6,22.46,89.35,7.49,122-72.17-54.36-78.1-64.4" transform="translate(-0.89 -12.27)"/><polyline class="cls-2" points="64.7 53.39 51.59 43.99 45.5 17.21 21.34 4.03"/><polyline class="cls-2" points="38.82 80.13 32.17 59.76 8.04 53.23"/><polyline class="cls-2" points="192.16 53.39 205.18 43.99 211.23 17.21 235.25 4.03"/><polyline class="cls-2" points="216.76 80.13 223.42 59.76 247.54 53.23"/><path class="cls-1" d="M89.88,47.92S55.69,73.76,25.65,106.53s-22.46,89.35-7.49,122,72.17-54.36,78.1-64.39" transform="translate(-0.89 -12.27)"/><ellipse class="cls-3" cx="128.72" cy="43.26" rx="38.73" ry="37.96"/><path class="cls-4" d="M171.51,111.83c0,53.12-18.76,96.19-41.9,96.19S87.71,165,87.71,111.83s18.76-55.17,41.9-55.17S171.51,58.71,171.51,111.83Z" transform="translate(-0.89 -12.27)"/><line class="cls-5" x1="85.38" y1="99.45" x2="51.88" y2="99.45"/><line class="cls-5" x1="171.2" y1="99.45" x2="204.71" y2="99.45"/><path class="cls-6" d="M149.9,132.71a41.89,41.89,0,0,1-42.84,0,59.08,59.08,0,0,1-18-16.56,59,59,0,0,1,18-16.56,41.83,41.83,0,0,1,42.84,0,59,59,0,0,1,18,16.56A59.08,59.08,0,0,1,149.9,132.71Z" transform="translate(-0.89 -12.27)"/><circle class="cls-7" cx="128.22" cy="103.44" r="16.69"/><path class="cls-8" d="M117.47,117.85a1.5,1.5,0,0,1-1.5-1.49A13.35,13.35,0,0,1,129.3,103a1.5,1.5,0,1,1,0,3A10.35,10.35,0,0,0,119,116.36,1.49,1.49,0,0,1,117.47,117.85Z" transform="translate(-0.89 -12.27)"/><line class="cls-9" x1="88.07" y1="127.57" x2="35.33" y2="139.77"/><line class="cls-9" x1="168.38" y1="129.93" x2="221.91" y2="139.77"/></svg>